<svg class="icon" style="width: 1.0712890625em; height: 1em;vertical-align: middle;fill: currentColor;overflow: hidden;" viewBox="0 0 1097 1024" version="1.1" xmlns="http://www.w3.org/2000/svg"><path d="M1097.142857 548.571429q-0.571429 18.285714-164.571428 54.857142l-201.142858 18.285715-128 36.571428h-36.571428l-167.428572 201.142857h39.428572q14.857143 0 25.714286 2.571429t10.857142 6.571429-10.857142 6.571428-25.714286 2.571429H256v-18.285715h36.571429v-237.714285H201.142857l-109.714286 128H36.571429l-18.285715-18.285715v-109.714285h18.285715v-18.285715h73.142857v-4.571428L0 585.142857V512l109.714286-13.714286v-4.571428H36.571429v-18.285715H18.285714V365.714286l18.285715-18.285715h54.857142l109.714286 128h91.428572V237.714286h-36.571429v-18.285715h182.857143q14.857143 0 25.714286 2.571429t10.857142 6.571429-10.857142 6.571428-25.714286 2.571429h-39.428572l167.428572 201.142857h36.571428l128 36.571428 201.142858 18.285715q73.142857 16 114.285714 29.714285t45.714286 19.428572z" /></svg>