<?xml version="1.0"?>
<svg xmlns="http://www.w3.org/2000/svg" viewBox="0 0 50 50">
    <path d="M 20 1 C 16.123 1 15.152 3.65025 14.5 5.40625 C 14.212 6.18225 13.9365 6.90675 13.5625 7.09375 C 13.1475 7.30075 12.92425 7.76775 13.03125 8.21875 C 13.13825 8.66975 13.536 9 14 9 L 15 9 C 15 11.748459 17.249427 14 20 14 C 22.750573 14 25 11.748459 25 9 L 26 9 C 26.461 9 26.85775 8.697 26.96875 8.25 C 27.07775 7.803 26.87675 7.338 26.46875 7.125 C 26.09075 6.928 25.81925 6.18325 25.53125 5.40625 C 24.87825 3.65225 23.886 1 20 1 z M 20 5 L 21.40625 6.40625 L 20 7.8125 L 18.59375 6.40625 L 20 5 z M 17 9 L 23 9 C 23 10.667541 21.669427 12 20 12 C 18.330573 12 17 10.667541 17 9 z M 14 15 C 11.794 15 10 16.794 10 19 L 10 23 L 13 23 L 13 25 L 10 25 L 10 33.625 L 14 35.625 L 14 48 L 26 48 L 26 35.625 L 30 33.625 L 30 25 L 27 25 L 27 23 L 30 23 L 30 19 C 30 16.794 28.206 15 26 15 L 22.59375 15 L 20 17.59375 L 17.40625 15 L 14 15 z M 32 15 L 32 48 L 39 48 L 39 47 C 39 43.097 36.16725 40.585 35.28125 39.125 L 37 37.40625 L 37 33.9375 C 40.639145 33.469463 42.78125 30.59375 42.78125 30.59375 L 41.21875 29.40625 C 41.21875 29.40625 39.589272 31.453921 37 31.90625 L 37 25 C 37 23.346 35.654 22 34 22 L 34 15 L 32 15 z M 14 28 L 26 28 L 26 30 L 14 30 L 14 28 z"/>
</svg>
