<?xml version="1.0" encoding="utf-8"?>
<!-- Generator: Adobe Illustrator 24.1.0, SVG Export Plug-In . SVG Version: 6.00 Build 0)  -->
<svg version="1.1" id="Capa_1" focusable="false" xmlns="http://www.w3.org/2000/svg" xmlns:xlink="http://www.w3.org/1999/xlink"
	 x="0px" y="0px" viewBox="0 0 320 512" style="enable-background:new 0 0 320 512;" xml:space="preserve">
<style type="text/css">
	.st0{fill:#FFFFFF;}
</style>
<path class="st0" d="M8,287.9c0,51.6,22.1,73.8,56,84.6V416h192v-43.5c33.9-10.8,56-33,56-84.6c0-30.6-10.7-67.1-26.7-102.6
	L185,285.6c-3.1,3.1-8.2,3.1-11.3,0l-11.3-11.3c-3.1-3.1-3.1-8.2,0-11.3l107.9-107.9c-20.8-37.9-46.5-72.1-70.9-92.6
	C213.4,59.1,224,47,224,32c0-17.7-14.3-32-32-32h-64c-17.7,0-32,14.3-32,32c0,15,10.6,27.1,24.6,30.5C67.8,106.8,8,214.5,8,287.9z
	 M304,448H16c-8.8,0-16,7.2-16,16v32c0,8.8,7.2,16,16,16h288c8.8,0,16-7.2,16-16v-32C320,455.2,312.8,448,304,448z"/>
</svg>
