<?xml version="1.0"?>
<svg xmlns="http://www.w3.org/2000/svg" width="50" height="50" viewBox="0 0 50 50">
    <path style="text-indent:0;text-align:start;line-height:normal;text-transform:none;block-progression:tb;-inkscape-font-specification:Bitstream Vera Sans" d="M 24 0 L 24 5 L 17 5 C 16.448 5 16 5.448 16 6 L 16 11 L 11 11 C 10.448 11 10 11.448 10 12 L 10 17.84375 L 24.0625 13.15625 C 24.3675 13.05625 24.681 13 25 13 C 25.326 13 25.66375 13.05425 25.96875 13.15625 L 40 17.875 L 40 12 C 40 11.448 39.553 11 39 11 L 34 11 L 34 6 C 34 5.448 33.553 5 33 5 L 26 5 L 26 0 L 24 0 z M 25 15 C 24.893 15.000125 24.791 15.0285 24.6875 15.0625 L 5.46875 21.4375 C 4.49475 21.7625 3.7365 22.4915 3.3125 23.4375 C 2.8875 24.3845 2.8925 25.4605 3.3125 26.4375 L 7 34.21875 L 7 40.75 C 7.499 40.404 8.0785 40.1875 8.6875 40.1875 C 9.3745 40.1875 10.05875 40.441 10.59375 40.875 C 11.46275 41.581 13.0595 41.90625 14.1875 41.90625 C 15.3155 41.90625 16.9435 41.58 17.8125 40.875 C 18.3455 40.44 18.9995 40.1875 19.6875 40.1875 C 20.3745 40.1875 21.05875 40.441 21.59375 40.875 C 22.46275 41.581 24.0595 41.90625 25.1875 41.90625 C 26.3155 41.90625 27.9395 41.584 28.8125 40.875 C 29.3465 40.443 30.0015 40.1875 30.6875 40.1875 C 31.3755 40.1875 32.06075 40.441 32.59375 40.875 C 33.46275 41.581 35.0595 41.90625 36.1875 41.90625 C 37.3155 41.90625 38.9395 41.584 39.8125 40.875 C 40.3465 40.443 41.0015 40.1875 41.6875 40.1875 C 42.1405 40.1875 42.596 40.305 43 40.5 L 43 34.21875 L 46.59375 26.4375 C 47.03975 25.5435 47.0765 24.5045 46.6875 23.5625 C 46.2745 22.5645 45.43425 21.7795 44.40625 21.4375 L 25.3125 15.0625 C 25.21 15.028 25.107 14.999875 25 15 z M 16.5 25 C 17.329 25 18 26.119 18 27.5 C 18 28.881 17.329 30 16.5 30 C 15.671 30 15 28.881 15 27.5 C 15 26.119 15.671 25 16.5 25 z M 33.5 25 C 34.328 25 35 26.119 35 27.5 C 35 28.881 34.328 30 33.5 30 C 32.672 30 32 28.881 32 27.5 C 32 26.119 32.672 25 33.5 25 z M 8.6875 42.1875 C 8.464125 42.1875 8.246 42.288 8.0625 42.4375 C 6.7205 43.5275 4.5955 43.90625 3.1875 43.90625 C 2.8385 43.90625 2.51375 43.86775 2.21875 43.84375 C 1.91775 43.81775 1.66125 43.8125 1.40625 43.8125 C 0.85425 43.8125 0.40625 44.2595 0.40625 44.8125 C 0.40625 45.3655 0.85425 45.8125 1.40625 45.8125 C 1.60925 45.8125 1.8215 45.82475 2.0625 45.84375 C 2.4085 45.87375 2.7775 45.90625 3.1875 45.90625 C 4.7985 45.90625 6.9935 45.5135 8.6875 44.4375 C 10.3815 45.5135 12.5775 45.90625 14.1875 45.90625 C 15.7975 45.90625 17.9935 45.5125 19.6875 44.4375 C 21.3815 45.5135 23.5775 45.90625 25.1875 45.90625 C 26.7975 45.90625 28.9935 45.5125 30.6875 44.4375 C 32.3805 45.5135 34.5775 45.90625 36.1875 45.90625 C 37.7975 45.90625 39.9935 45.5125 41.6875 44.4375 C 43.3805 45.5135 45.5775 45.90625 47.1875 45.90625 C 48.0105 45.90625 48.758 45.77725 49.375 45.53125 C 49.888 45.32525 50.1425 44.73175 49.9375 44.21875 C 49.7315 43.70575 49.137 43.45125 48.625 43.65625 C 48.246 43.80825 47.7555 43.90625 47.1875 43.90625 C 45.7795 43.90625 43.68475 43.5275 42.34375 42.4375 C 41.97675 42.1385 41.4315 42.1385 41.0625 42.4375 C 39.7205 43.5275 37.5945 43.90625 36.1875 43.90625 C 34.7795 43.90625 32.68475 43.5275 31.34375 42.4375 C 30.97675 42.1385 30.4315 42.1385 30.0625 42.4375 C 28.7205 43.5275 26.5945 43.90625 25.1875 43.90625 C 23.7795 43.90625 21.68475 43.5275 20.34375 42.4375 C 19.97575 42.1385 19.4295 42.1385 19.0625 42.4375 C 17.7205 43.5275 15.5955 43.90625 14.1875 43.90625 C 12.7795 43.90625 10.68475 43.5275 9.34375 42.4375 C 9.15975 42.288 8.910875 42.1875 8.6875 42.1875 z M 8.59375 46.1875 A 1.0001 1.0001 0 0 0 8.0625 46.4375 C 6.7644236 47.492187 4.5097222 47.90625 3.1875 47.90625 C 2.5836905 47.90625 2.0409167 47.8125 1.40625 47.8125 A 1.0001 1.0001 0 1 0 1.40625 49.8125 C 1.7715833 49.8125 2.3913095 49.90625 3.1875 49.90625 C 4.6921632 49.90625 6.8762472 49.458714 8.6875 48.28125 C 10.503238 49.471721 12.676166 49.90625 14.1875 49.90625 C 15.692163 49.90625 17.876247 49.458714 19.6875 48.28125 C 21.503238 49.471721 23.676166 49.90625 25.1875 49.90625 C 26.692163 49.90625 28.875931 49.458435 30.6875 48.28125 C 32.503238 49.471721 34.676166 49.90625 36.1875 49.90625 C 37.692163 49.90625 39.875931 49.458435 41.6875 48.28125 C 43.503238 49.471721 45.676166 49.90625 47.1875 49.90625 C 47.98369 49.90625 48.726657 49.790587 49.375 49.53125 A 1.0097184 1.0097184 0 0 0 48.625 47.65625 C 48.273343 47.796913 47.79131 47.90625 47.1875 47.90625 C 45.865278 47.90625 43.641826 47.492187 42.34375 46.4375 A 1.0001 1.0001 0 0 0 41.0625 46.4375 C 39.763064 47.492632 37.509722 47.90625 36.1875 47.90625 C 34.865278 47.90625 32.641826 47.492187 31.34375 46.4375 A 1.0001 1.0001 0 0 0 30.0625 46.4375 C 28.763064 47.492632 26.509722 47.90625 25.1875 47.90625 C 23.865278 47.90625 21.641826 47.492187 20.34375 46.4375 A 1.0001 1.0001 0 0 0 19.0625 46.4375 C 17.764424 47.492187 15.509722 47.90625 14.1875 47.90625 C 12.865278 47.90625 10.641826 47.492187 9.34375 46.4375 A 1.0001 1.0001 0 0 0 8.6875 46.1875 A 1.0001 1.0001 0 0 0 8.59375 46.1875 z" overflow="visible" enable-background="accumulate" font-family="Bitstream Vera Sans"/>
</svg>
